# xmcd
#
# Track frame offsets:
# 150
# 16245
# 35488
# 54470
# 70396
# 84516
# 103735
# 118475
# 140164
# 162543
# 175535
# 186002
# 196771
# 210009
#
# Disc length: 2946 seconds
#
#
# Revision: 0
# Processed by: cddbd v1.5.1PL2 Copyright (c) Steve Scherf et al.
# Submitted via: FreeRIP 2.944 
#
DISCID=c00b800e
DTITLE=NATAL FELIZ - NATAL FELIZ
DYEAR=2005
DGENRE=Alt. Rock
TTITLE0=MARCAS DO QUE SE FOI - ZEZÉ DI CAMARGO E LUCIANO
TTITLE1=ENTÃO É NATAL - SIMONE
TTITLE2=HAPPY XMAS
TTITLE3=HAPPY XMAS - JOHN LENNON
TTITLE4=NOITE FELIZ - CHITÃOZINHO E XORORÓ
TTITLE5=BOAS FESTAS - FA´FA DE BELÉM
TTITLE6=BATE O SINO - SIMONE
TTITLE7=EU TENHO UM SONHO - SAMBA DE NATAL
TTITLE8=NOITE FELIZ - SIMONE
TTITLE9=AVE MARIA - CORAL FELIZ NATAL
TTITLE10=JIGLE BELLS - SILVIO SÓLES
TTITLE11=O VELHINHO - LUIZ BORDON
TTITLE12=NATAL DAS CRIANÇAS - SILVIO SÓLES
TTITLE13=FIM DE ANO - LUIZ BORDON
EXTD=
EXTT0=
EXTT1=
EXTT2=
EXTT3=
EXTT4=
EXTT5=
EXTT6=
EXTT7=
EXTT8=
EXTT9=
EXTT10=
EXTT11=
EXTT12=
EXTT13=
PLAYORDER=
